<?xml version="1.0" standalone="no"?>
<!DOCTYPE svg PUBLIC "-//W3C//DTD SVG 20010904//EN"
 "http://www.w3.org/TR/2001/REC-SVG-20010904/DTD/svg10.dtd">
<svg version="1.0" xmlns="http://www.w3.org/2000/svg"
 width="700.000000pt" height="700.000000pt" viewBox="0 0 700.000000 700.000000"
 preserveAspectRatio="xMidYMid meet">
<metadata>
Created by potrace 1.14, written by Peter Selinger 2001-2017
</metadata>
<g transform="translate(0.000000,700.000000) scale(0.100000,-0.100000)"
fill="#000000" stroke="none">
<path d="M5365 5349 c-58 -11 -123 -36 -174 -66 -37 -22 -171 -133 -232 -192
-9 -9 -31 -29 -50 -46 -73 -63 -405 -359 -420 -374 -9 -9 -47 -43 -85 -76 -38
-33 -94 -83 -124 -111 -30 -27 -116 -104 -190 -170 -74 -65 -137 -121 -140
-124 -3 -3 -43 -39 -90 -80 -47 -41 -87 -77 -90 -80 -3 -3 -45 -41 -95 -85
-49 -44 -92 -82 -95 -85 -3 -3 -68 -61 -145 -129 -77 -68 -149 -133 -160 -145
-11 -12 -36 -34 -55 -50 -19 -15 -55 -47 -80 -70 -25 -22 -83 -75 -130 -116
-47 -41 -90 -79 -96 -85 -6 -5 -46 -41 -90 -80 -78 -69 -184 -165 -194 -175
-3 -3 -41 -37 -85 -75 -93 -82 -80 -70 -185 -165 -99 -90 -109 -98 -197 -175
-220 -192 -288 -300 -300 -480 -18 -272 162 -512 429 -572 18 -4 74 -7 123 -7
150 1 255 45 390 165 39 34 103 92 144 128 107 95 170 152 205 184 17 16 58
52 90 80 33 29 71 63 85 76 14 12 55 49 91 81 36 32 77 69 91 81 14 13 43 40
66 59 39 34 173 154 220 196 12 12 55 50 95 86 40 35 136 121 213 189 77 69
155 138 174 154 18 17 45 41 60 55 15 14 58 52 95 85 38 33 74 65 80 71 6 5
58 52 116 104 58 52 110 99 116 104 6 6 39 36 74 66 34 30 74 66 89 79 14 13
44 40 66 60 22 20 98 88 170 151 118 104 163 144 229 205 12 11 55 49 96 85
40 36 85 76 99 89 43 39 162 145 185 164 193 166 268 312 260 507 -13 281
-244 508 -524 515 -47 1 -103 -1 -125 -6z"/>
<path d="M1527 4184 c-1 -1 -33 -4 -72 -8 -71 -6 -142 -22 -160 -36 -5 -4 -21
-10 -35 -13 -37 -9 -143 -80 -201 -134 -87 -81 -168 -223 -196 -345 -5 -18 -8
-89 -7 -158 0 -110 4 -135 28 -205 36 -103 83 -180 159 -259 141 -145 304
-211 507 -207 74 1 226 33 244 52 6 5 16 9 23 9 19 0 141 82 186 126 221 212
273 542 129 819 -74 143 -248 285 -402 329 -48 13 -196 36 -203 30z"/>
</g>
</svg>
